<svg version="1.0" xmlns="http://www.w3.org/2000/svg"
 width="100%" height="100%" viewBox="0 0 2726.000000 1380.000000">

<g transform="translate(0.000000,1380.000000) scale(0.100000,-0.100000)"
fill="#000000" stroke="none">

  <!-- LOGO -->
  <g data-name="logo">
    <path d="M13315 10974 c-16 -2 -70 -9 -120 -15 -484 -58 -940 -234 -1360 -525
    -282 -195 -568 -488 -760 -779 -288 -436 -448 -885 -496 -1389 -18 -199 -7
    -552 25 -746 125 -769 550 -1464 1181 -1930 139 -103 255 -173 435 -264 342
    -173 687 -273 1064 -307 154 -14 549 -6 676 15 430 68 780 193 1125 401 485
    293 888 730 1135 1230 219 445 314 854 313 1340 -2 599 -168 1142 -506 1650
    -91 137 -118 171 -275 348 -446 501 -1082 842 -1770 948 -105 16 -195 22 -387
    24 -137 2 -263 1 -280 -1z m511 -255 c888 -86 1706 -635 2136 -1434 223 -415
    343 -920 323 -1360 -17 -395 -87 -707 -231 -1028 -54 -121 -200 -387 -213
    -387 -4 0 -279 466 -611 1035 -332 569 -606 1035 -610 1035 -4 0 -321 -543
    -705 -1206 -639 -1106 -696 -1208 -686 -1231 10 -22 443 -778 493 -860 l20
    -33 -145 0 -144 0 -728 1265 c-401 696 -730 1264 -731 1262 -2 -1 -167 -290
    -368 -641 l-364 -638 -72 121 c-195 329 -320 706 -360 1086 -16 148 -13 479 5
    624 148 1185 1053 2142 2230 2361 61 11 148 24 195 29 124 12 439 13 566 0z"/>
    <path d="M12050 9747 c-138 -47 -239 -131 -301 -253 -46 -88 -60 -148 -60
    -249 1 -236 163 -440 396 -500 320 -82 646 175 645 508 -1 219 -158 432 -368
    497 -91 28 -225 27 -312 -3z"/>
    <path d="M12919 8274 c-222 -466 -404 -854 -404 -864 0 -9 126 -235 280 -503
    218 -381 282 -485 291 -475 12 14 820 1416 829 1440 5 13 -563 1218 -584 1241
    -4 4 -189 -374 -412 -839z"/>
  </g>

  <!-- TEXT -->
  <g data-name="text">
    <!-- "THE" -->
    <g>
      <!-- The "T" -->
      <path d="M2772 3613 l3 -148 157 -3 158 -3 2 -517 3 -517 160 0 160 0 3 517 2
      517 158 3 157 3 0 145 0 145 -483 3 -483 2 3 -147z"/>

      <!-- The "H" -->
      <path d="M3965 3748 c-3 -7 -4 -308 -3 -668 l3 -655 160 0 160 0 3 243 2 242
      245 0 245 0 2 -242 3 -243 160 0 160 0 0 665 0 665 -160 0 -160 0 -5 -275 -5
      -275 -240 0 -240 0 -5 275 -5 275 -158 3 c-120 2 -159 0 -162 -10z"/>

      <!-- The "E" -->
      <path d="M5337 3763 c-4 -3 -7 -305 -7 -670 l0 -663 493 2 492 3 0 140 0 140
      -327 3 -328 2 0 115 0 115 203 0 c145 0 206 3 215 12 8 8 12 53 12 138 0 85
      -4 130 -12 138 -9 9 -70 12 -215 12 l-203 0 0 110 0 110 319 0 c260 0 321 3
      330 14 8 9 11 57 9 147 l-3 134 -486 3 c-267 1 -489 -1 -492 -5z"/>
    </g>

    <!-- "SHARP" -->
    <g>
      <!-- Sharp "S" -->
      <path d="M7549 3775 c-243 -48 -390 -248 -349 -475 15 -83 37 -124 97 -182 63
      -60 135 -95 316 -152 160 -51 210 -82 225 -140 23 -85 -47 -133 -183 -123
      -135 10 -253 64 -375 174 -27 24 -57 43 -66 41 -24 -4 -102 -272 -87 -296 19
      -32 161 -120 244 -152 46 -17 113 -38 149 -46 86 -18 259 -18 339 1 137 33
      250 120 305 235 29 60 31 73 31 170 0 94 -3 111 -28 161 -35 73 -120 153 -200
      189 -34 15 -116 45 -182 65 -192 60 -225 82 -225 151 0 35 5 47 34 72 39 34
      101 47 174 36 67 -10 114 -29 225 -96 54 -33 104 -57 111 -55 11 5 86 238 86
      270 0 21 -104 78 -210 115 -147 51 -295 64 -431 37z"/>

      <!-- Sharp "H" -->
      <path d="M8425 3748 c-3 -7 -4 -308 -3 -668 l3 -655 160 0 160 0 3 243 2 242
      243 -2 242 -3 5 -240 5 -240 160 0 160 0 0 665 0 665 -160 0 -160 0 -5 -275
      -5 -275 -240 0 -240 0 -5 275 -5 275 -158 3 c-120 2 -159 0 -162 -10z"/>

      <!-- Sharp "A" -->
      <path d="M10293 3748 c-19 -25 -504 -1289 -501 -1306 3 -15 20 -17 167 -17
      l164 0 41 102 41 103 243 0 243 0 10 -27 c5 -16 24 -62 42 -103 l32 -75 168
      -3 c140 -2 168 0 173 12 3 8 -106 309 -244 668 l-249 653 -160 3 c-121 2 -163
      -1 -170 -10z m236 -623 c39 -115 71 -213 71 -217 0 -5 -67 -8 -150 -8 -82 0
      -150 3 -150 7 0 21 145 441 151 435 3 -4 38 -101 78 -217z"/>

      <!-- Sharp "R" -->
      <path d="M11296 3744 c-8 -20 -8 -1288 0 -1308 5 -14 29 -16 160 -16 141 0
      154 2 164 19 6 12 10 98 10 210 l0 191 93 0 92 0 84 -187 c46 -104 90 -198 98
      -210 13 -22 18 -23 182 -23 128 0 171 3 180 13 8 11 -7 49 -64 163 -40 82 -94
      185 -118 229 l-45 81 56 34 c67 43 123 111 153 187 32 81 32 241 0 327 -56
      156 -154 245 -316 286 -70 18 -111 20 -401 20 -284 0 -323 -2 -328 -16z m657
      -303 c131 -64 123 -248 -13 -289 -53 -16 -181 -25 -249 -17 l-61 7 0 165 0
      166 138 -5 c117 -4 145 -8 185 -27z"/>

      <!-- Sharp "P" -->
      <path d="M12592 3093 l3 -668 149 -3 c101 -2 153 1 162 9 11 9 14 53 14 209
      l0 197 158 6 c86 4 186 14 221 22 158 38 287 136 331 252 27 72 37 198 21 276
      -18 84 -73 187 -130 240 -60 56 -111 83 -208 108 -68 17 -112 19 -400 19
      l-323 0 2 -667z m653 347 c56 -28 95 -88 95 -148 0 -46 -35 -109 -71 -128 -43
      -22 -200 -38 -281 -30 l-68 8 0 165 0 165 138 -4 c121 -3 143 -6 187 -28z"/>
    </g>

    <!-- "TRAVELER" -->
    <g>
      <!-- Travler "T" -->
      <path d="M14464 3747 c-2 -7 -3 -74 -2 -148 l3 -134 158 -3 157 -3 0 -507 c0
      -279 4 -513 8 -520 7 -9 46 -12 163 -10 l154 3 3 518 2 517 153 0 c106 0 157
      4 165 12 13 13 18 242 6 272 -5 14 -58 16 -485 16 -384 0 -481 -3 -485 -13z"/>

      <!-- Traveler "R" -->
      <path d="M15655 3748 c-3 -7 -4 -308 -3 -668 l3 -655 160 0 160 0 3 208 2 207
      98 0 97 0 94 -210 94 -210 172 0 c126 0 175 3 183 13 8 9 -15 62 -83 198 -51
      102 -104 204 -119 227 -14 23 -26 44 -26 47 0 2 17 13 38 24 54 28 127 104
      156 164 100 207 17 487 -176 600 -100 59 -167 67 -525 67 -250 0 -325 -3 -328
      -12z m596 -288 c83 -16 139 -68 153 -146 11 -54 -27 -123 -81 -150 -50 -26
      -181 -39 -277 -29 l-66 7 0 157 c0 87 3 161 7 164 10 11 204 8 264 -3z"/>

      <!-- Traveler "A" -->
      <path d="M17432 3708 c-11 -29 -124 -320 -251 -646 -127 -327 -231 -604 -231
      -618 l0 -24 164 0 164 0 32 78 c18 42 37 89 42 105 l10 27 243 0 242 0 43
      -105 43 -105 168 0 c139 0 168 3 173 15 4 12 -204 569 -464 1243 l-31 82 -164
      0 -164 0 -19 -52z m259 -596 c38 -114 69 -208 69 -209 0 -2 -67 -3 -150 -3
      -113 0 -150 3 -150 13 0 6 32 108 72 224 53 155 75 208 81 197 5 -9 40 -109
      78 -222z"/>

      <!-- Traveler "V" -->
      <path d="M18284 3745 c-3 -8 92 -308 213 -667 l218 -653 159 -3 c88 -1 163 1
      167 5 15 15 450 1314 444 1323 -4 6 -77 10 -170 10 -147 0 -164 -2 -169 -17
      -25 -85 -248 -811 -252 -823 -4 -12 -201 608 -254 803 l-11 37 -170 0 c-140 0
      -171 -3 -175 -15z"/>

      <!-- Traveler 1st "E" -->
      <path d="M19710 3751 c-6 -13 -10 -239 -10 -670 l0 -651 494 0 c441 0 495 2
      500 16 3 9 6 67 6 129 0 62 -3 120 -6 129 -5 14 -44 16 -330 16 l-324 0 0 115
      0 115 198 0 c108 0 203 4 210 8 9 7 12 43 10 148 l-3 139 -207 3 -208 2 0 110
      0 110 319 0 c260 0 321 3 330 14 8 9 11 57 9 147 l-3 134 -487 3 c-474 2 -487
      2 -498 -17z"/>

      <!-- Traveler "L" -->
      <path d="M20916 3744 c-3 -8 -6 -305 -6 -659 0 -531 2 -645 14 -654 9 -8 129
      -10 422 -9 l409 3 3 139 c2 93 -1 143 -9 152 -9 11 -60 14 -255 14 l-244 0 -2
      513 -3 512 -161 3 c-141 2 -162 0 -168 -14z"/>

      <!-- Traveler 2nd "E" -->
      <path d="M21980 3744 c-6 -15 -10 -274 -10 -670 l0 -644 498 2 497 3 3 120 c1
      66 0 130 -3 143 l-5 22 -325 0 -325 0 0 115 0 115 199 0 c168 0 202 2 215 16
      13 12 16 40 16 138 0 81 -4 126 -12 134 -9 9 -70 12 -215 12 l-203 0 0 110 0
      110 319 0 c260 0 321 3 330 14 8 9 11 57 9 147 l-3 134 -488 3 -487 2 -10 -26z"/>

      <!-- Traveler "R" -->
      <path d="M23192 3093 l3 -668 149 -3 c101 -2 153 1 162 9 11 9 14 53 14 210
      l0 199 93 0 94 0 94 -207 95 -208 177 -3 c145 -2 178 0 183 12 5 13 -139 310
      -204 420 l-29 49 61 41 c68 46 128 119 152 186 38 109 25 279 -30 388 -34 67
      -105 143 -164 175 -108 59 -172 67 -529 67 l-323 0 2 -667z m653 347 c38 -19
      55 -35 73 -70 12 -24 22 -58 22 -74 0 -45 -38 -114 -72 -132 -42 -22 -200 -38
      -280 -30 l-68 8 0 165 0 165 138 -4 c121 -3 143 -6 187 -28z"/>
    </g>
  </g>
</g>
</svg>
